<svg xmlns="http://www.w3.org/2000/svg" viewBox="0 0 24 24">
  <path fill="black" d="M12 15.5a3.5 3.5 0 1 0 0-7 3.5 3.5 0 0 0 0 7Zm8.2-2.1-1.6-.9c.1-.5.1-.9.1-1.4s0-.9-.1-1.4l1.6-.9c.4-.2.5-.7.3-1.1l-1.5-2.6c-.2-.4-.7-.5-1.1-.3l-1.6.9c-.7-.6-1.4-1-2.2-1.3V2.5c0-.4-.4-.8-.8-.8h-3c-.4 0-.8.4-.8.8v1.8c-.8.3-1.6.7-2.2 1.3l-1.6-.9c-.4-.2-.9-.1-1.1.3L3 7.6c-.2.4-.1.9.3 1.1l1.6.9c-.1.5-.1.9-.1 1.4s0 .9.1 1.4l-1.6.9c-.4.2-.5.7-.3 1.1L4.5 17c.2.4.7.5 1.1.3l1.6-.9c.7.6 1.4 1 2.2 1.3v1.8c0 .4.4.8.8.8h3c.4 0 .8-.4.8-.8v-1.8c.8-.3 1.6-.7 2.2-1.3l1.6.9c.4.2.9.1 1.1-.3l1.5-2.6c.3-.3.2-.8-.2-1Z"/>
</svg>
