<svg width="128" height="128" viewBox="0 0 128 128" fill="none" xmlns="http://www.w3.org/2000/svg">
<path fill-rule="evenodd" clip-rule="evenodd" d="M69.4813 0.0351194C95.9202 0.825399 117.761 20.3928 125.53 46.7241C132.915 71.7544 123.25 98.2179 103.051 113.811C82.1947 129.913 54.245 133.505 32.7387 118.359C8.8192 101.514 -6.31389 71.6617 2.57117 43.0487C11.4877 14.3343 40.516 -0.830679 69.4813 0.0351194Z" fill="#7E007B" style="fill:#7E007B;fill:color(display-p3 0.4941 0.0000 0.4824);fill-opacity:1;"/>
<path d="M44.0605 60.308C43.2925 59.252 42.5605 58.208 41.8645 57.176C41.1925 56.12 40.4605 54.968 39.6685 53.72C38.9005 52.472 38.0125 51.092 37.0045 49.58C36.0205 48.044 34.8325 46.256 33.4405 44.216C33.4405 46.016 33.4405 47.636 33.4405 49.076C33.4405 50.492 33.4285 51.812 33.4045 53.036C33.3805 54.26 33.3565 55.412 33.3325 56.492C33.3085 57.572 33.2725 58.652 33.2245 59.732C33.2005 60.308 33.1405 60.752 33.0445 61.064C32.9725 61.376 32.8645 61.616 32.7205 61.784C32.5765 61.952 32.4085 62.048 32.2165 62.072C32.0485 62.12 31.8445 62.144 31.6045 62.144C31.1725 62.144 30.8125 62 30.5245 61.712C30.2365 61.4 30.0685 60.752 30.0205 59.768C29.9005 57.128 29.8285 54.488 29.8045 51.848C29.8045 49.184 29.8045 46.436 29.8045 43.604C29.8045 41.996 29.8165 40.736 29.8405 39.824C29.8885 38.912 29.9725 38.228 30.0925 37.772C30.2365 37.316 30.4165 37.028 30.6325 36.908C30.8725 36.788 31.1845 36.728 31.5685 36.728C31.9525 36.728 32.4565 37.028 33.0805 37.628C33.7045 38.204 34.3885 38.972 35.1325 39.932C35.8765 40.892 36.6685 41.996 37.5085 43.244C38.3725 44.492 39.2245 45.776 40.0645 47.096C40.9045 48.416 41.7085 49.724 42.4765 51.02C43.2685 52.316 43.9885 53.492 44.6365 54.548C44.6125 53.42 44.6005 52.184 44.6005 50.84C44.6005 49.472 44.6005 47.96 44.6005 46.304C44.6005 44.408 44.6125 42.848 44.6365 41.624C44.6605 40.376 44.7205 39.392 44.8165 38.672C44.9365 37.952 45.1165 37.448 45.3565 37.16C45.5965 36.872 45.9325 36.728 46.3645 36.728C46.7725 36.728 47.1325 36.86 47.4445 37.124C47.7565 37.388 47.9365 38 47.9845 38.96C48.0325 39.824 48.0685 40.592 48.0925 41.264C48.1165 41.936 48.1405 42.608 48.1645 43.28C48.1885 43.928 48.2005 44.612 48.2005 45.332C48.2005 46.028 48.2005 46.82 48.2005 47.708C48.2005 48.788 48.2005 49.82 48.2005 50.804C48.2005 51.788 48.1885 52.76 48.1645 53.72C48.1405 54.68 48.1165 55.652 48.0925 56.636C48.0685 57.62 48.0325 58.652 47.9845 59.732C47.9605 60.308 47.9005 60.752 47.8045 61.064C47.7325 61.376 47.6245 61.616 47.4805 61.784C47.3365 61.952 47.1685 62.048 46.9765 62.072C46.8085 62.12 46.6045 62.144 46.3645 62.144C45.9565 62.144 45.6085 62.024 45.3205 61.784C45.0325 61.544 44.6125 61.052 44.0605 60.308Z" fill="white" style="fill:white;fill-opacity:1;"/>
<path d="M70.8083 50.7667C70.8083 50.7583 70.8083 50.75 70.8083 50.7333C71.8417 49.8167 72.5 48.4833 72.5 47C72.5 44.2417 70.2583 42 67.5 42C67.2833 42 67.0667 42.0167 66.85 42.05C65.9917 40.525 64.3667 39.5 62.5 39.5C60.6333 39.5 59.0083 40.525 58.15 42.05C57.9333 42.0167 57.7167 42 57.5 42C54.7417 42 52.5 44.2417 52.5 47C52.5 48.4833 53.1583 49.8167 54.1833 50.7333C54.1833 50.7417 54.1833 50.75 54.1833 50.7667C53.1583 51.6833 52.5 53.0167 52.5 54.5C52.5 57.2583 54.7417 59.5 57.5 59.5C58.6583 59.5 59.725 59.1 60.575 58.4333C61.1917 58.5833 61.8333 58.6667 62.5 58.6667C63.1667 58.6667 63.8083 58.5833 64.425 58.4333C65.275 59.1 66.3417 59.5 67.5 59.5C70.2583 59.5 72.5 57.2583 72.5 54.5C72.5 53.0167 71.8417 51.6833 70.8083 50.7667ZM62.5 57C58.825 57 55.8333 54.0083 55.8333 50.3333C55.8333 47.2333 57.9667 44.625 60.8333 43.8833C60.8333 43.9 60.8333 43.9083 60.8333 43.925C60.8333 46.7083 63.1 48.975 65.8833 48.975C66.9333 48.975 67.925 48.65 68.7583 48.0667C69.0167 48.7833 69.1667 49.5417 69.1667 50.3333C69.1667 54.0083 66.175 57 62.5 57Z" fill="white" style="fill:white;fill-opacity:1;"/>
<path d="M60.0002 52.2083C60.5755 52.2083 61.0418 51.742 61.0418 51.1667C61.0418 50.5914 60.5755 50.125 60.0002 50.125C59.4249 50.125 58.9585 50.5914 58.9585 51.1667C58.9585 51.742 59.4249 52.2083 60.0002 52.2083Z" fill="white" style="fill:white;fill-opacity:1;"/>
<path d="M65.0002 52.2083C65.5755 52.2083 66.0418 51.742 66.0418 51.1667C66.0418 50.5914 65.5755 50.125 65.0002 50.125C64.4249 50.125 63.9585 50.5914 63.9585 51.1667C63.9585 51.742 64.4249 52.2083 65.0002 52.2083Z" fill="white" style="fill:white;fill-opacity:1;"/>
<path d="M77.1082 59.768C77.0602 58.88 77.0122 57.872 76.9642 56.744C76.9402 55.592 76.9282 54.332 76.9282 52.964C76.9282 51.26 76.9402 49.808 76.9642 48.608C76.9882 47.384 77.0482 46.388 77.1442 45.62C77.2642 44.828 77.4442 44.252 77.6842 43.892C77.9242 43.508 78.2602 43.316 78.6922 43.316C79.1002 43.316 79.4602 43.46 79.7722 43.748C80.0842 44.036 80.2642 44.66 80.3122 45.62C80.4562 48.14 80.5282 50.576 80.5282 52.928C80.5282 54.128 80.5042 55.256 80.4562 56.312C80.4082 57.344 80.3602 58.484 80.3122 59.732C80.2882 60.308 80.2282 60.752 80.1322 61.064C80.0602 61.376 79.9522 61.616 79.8082 61.784C79.6642 61.952 79.4962 62.048 79.3042 62.072C79.1362 62.12 78.9322 62.144 78.6922 62.144C78.2602 62.144 77.9002 62 77.6122 61.712C77.3242 61.4 77.1562 60.752 77.1082 59.768ZM78.7282 36.8C79.2802 36.8 79.7842 37.016 80.2402 37.448C80.7202 37.88 80.9602 38.396 80.9602 38.996C80.9602 39.572 80.7202 40.076 80.2402 40.508C79.7602 40.916 79.2202 41.12 78.6202 41.12C78.1162 41.12 77.6362 40.916 77.1802 40.508C76.7482 40.076 76.5322 39.548 76.5322 38.924C76.5322 38.348 76.7482 37.856 77.1802 37.448C77.6362 37.016 78.1522 36.8 78.7282 36.8ZM91.3133 43.208C91.8173 43.208 92.4533 43.256 93.2213 43.352C93.9893 43.424 94.7213 43.58 95.4173 43.82C96.1133 44.036 96.7133 44.348 97.2173 44.756C97.7213 45.164 97.9733 45.68 97.9733 46.304C97.9733 46.664 97.8653 46.976 97.6493 47.24C97.4573 47.504 97.1453 47.636 96.7133 47.636C96.4013 47.636 96.0413 47.588 95.6333 47.492C95.2493 47.396 94.8173 47.288 94.3373 47.168C93.8813 47.024 93.3773 46.904 92.8253 46.808C92.2973 46.712 91.7333 46.664 91.1333 46.664C90.1253 46.664 89.2973 46.82 88.6493 47.132C88.0253 47.444 87.7133 47.936 87.7133 48.608C87.7133 48.992 87.8213 49.316 88.0373 49.58C88.2773 49.844 88.5893 50.084 88.9733 50.3C89.3813 50.492 89.8493 50.66 90.3773 50.804C90.9293 50.948 91.5053 51.092 92.1053 51.236C92.8493 51.428 93.5813 51.644 94.3013 51.884C95.0453 52.124 95.7053 52.46 96.2813 52.892C96.8573 53.3 97.3253 53.828 97.6853 54.476C98.0453 55.1 98.2253 55.88 98.2253 56.816C98.2253 58.592 97.5533 60.008 96.2093 61.064C94.8653 62.096 92.8853 62.612 90.2693 62.612C89.6933 62.612 89.0093 62.564 88.2173 62.468C87.4253 62.396 86.6813 62.24 85.9853 62C85.2893 61.784 84.6893 61.472 84.1853 61.064C83.7053 60.632 83.4653 60.068 83.4653 59.372C83.4653 58.892 83.5733 58.532 83.7893 58.292C84.0293 58.028 84.3173 57.896 84.6533 57.896C84.9173 57.896 85.1933 57.98 85.4813 58.148C85.7693 58.316 86.1173 58.496 86.5253 58.688C86.9333 58.88 87.4253 59.06 88.0013 59.228C88.5773 59.396 89.2853 59.48 90.1253 59.48C90.4373 59.48 90.8453 59.468 91.3493 59.444C91.8533 59.396 92.3453 59.288 92.8253 59.12C93.3293 58.952 93.7493 58.724 94.0853 58.436C94.4453 58.124 94.6253 57.692 94.6253 57.14C94.6253 56.708 94.5053 56.348 94.2653 56.06C94.0253 55.748 93.7013 55.484 93.2933 55.268C92.8853 55.052 92.4053 54.872 91.8533 54.728C91.3253 54.56 90.7613 54.392 90.1613 54.224C89.4653 54.032 88.7573 53.816 88.0373 53.576C87.3413 53.336 86.7053 53.024 86.1293 52.64C85.5533 52.256 85.0853 51.776 84.7253 51.2C84.3653 50.6 84.1853 49.868 84.1853 49.004C84.1853 48.188 84.3533 47.432 84.6893 46.736C85.0253 46.016 85.5053 45.392 86.1293 44.864C86.7533 44.336 87.4973 43.928 88.3613 43.64C89.2493 43.352 90.2333 43.208 91.3133 43.208Z" fill="white" style="fill:white;fill-opacity:1;"/>
<path d="M38.1533 88.66C38.0813 87.148 38.0333 85.36 38.0093 83.296C38.0093 81.208 38.0093 78.844 38.0093 76.204C37.7693 76.228 37.4813 76.24 37.1453 76.24C36.8333 76.24 36.5813 76.24 36.3893 76.24C35.9573 76.24 35.5613 76.228 35.2013 76.204C34.8653 76.18 34.5653 76.108 34.3013 75.988C34.0373 75.868 33.8333 75.7 33.6893 75.484C33.5453 75.244 33.4733 74.92 33.4733 74.512C33.4733 73.36 34.3373 72.784 36.0653 72.784C36.3293 72.784 36.6533 72.784 37.0373 72.784C37.4213 72.784 37.7453 72.808 38.0093 72.856C38.0093 71.584 38.0333 70.564 38.0813 69.796C38.1293 69.028 38.2133 68.44 38.3333 68.032C38.4773 67.6 38.6573 67.324 38.8733 67.204C39.1133 67.06 39.4133 66.988 39.7733 66.988C40.1573 66.988 40.4693 67.12 40.7093 67.384C40.9493 67.648 41.1293 67.984 41.2493 68.392C41.3933 68.8 41.4773 69.256 41.5013 69.76C41.5493 70.264 41.5733 70.756 41.5733 71.236C41.5733 71.572 41.5613 71.884 41.5373 72.172C41.5373 72.436 41.5373 72.676 41.5373 72.892C41.8733 72.796 42.2213 72.748 42.5813 72.748C42.9413 72.724 43.2893 72.712 43.6253 72.712C44.5133 72.712 45.1973 72.856 45.6773 73.144C46.1573 73.408 46.3973 73.852 46.3973 74.476C46.3973 74.86 46.3133 75.172 46.1453 75.412C45.9773 75.628 45.7493 75.796 45.4613 75.916C45.1973 76.036 44.8733 76.12 44.4893 76.168C44.1293 76.192 43.7333 76.204 43.3013 76.204C43.0613 76.204 42.7853 76.204 42.4733 76.204C42.1613 76.204 41.8733 76.18 41.6093 76.132C41.6093 77.404 41.6093 78.568 41.6093 79.624C41.6093 80.68 41.5973 81.7 41.5733 82.684C41.5493 83.644 41.5253 84.604 41.5013 85.564C41.4773 86.524 41.4413 87.544 41.3933 88.624C41.3693 89.2 41.3093 89.644 41.2133 89.956C41.1413 90.268 41.0333 90.508 40.8893 90.676C40.7453 90.844 40.5773 90.952 40.3853 91C40.2173 91.024 40.0133 91.036 39.7733 91.036C39.3413 91.036 38.9693 90.892 38.6573 90.604C38.3693 90.292 38.2013 89.644 38.1533 88.66ZM64.1259 91.144C63.7419 91.144 63.4299 91.084 63.1899 90.964C62.9739 90.82 62.8059 90.64 62.6859 90.424C62.5659 90.208 62.4819 89.956 62.4339 89.668C62.3859 89.356 62.3499 89.032 62.3259 88.696C61.7259 89.44 60.9459 90.064 59.9859 90.568C59.0499 91.072 57.8499 91.324 56.3859 91.324C55.4499 91.324 54.4899 91.192 53.5059 90.928C52.5459 90.64 51.6699 90.16 50.8779 89.488C50.0859 88.792 49.4379 87.868 48.9339 86.716C48.4299 85.564 48.1779 84.112 48.1779 82.36C48.1779 80.992 48.3459 79.708 48.6819 78.508C49.0179 77.308 49.5219 76.264 50.1939 75.376C50.8899 74.464 51.7539 73.744 52.7859 73.216C53.8179 72.688 55.0299 72.424 56.4219 72.424C57.6459 72.424 58.7379 72.652 59.6979 73.108C60.6579 73.54 61.5219 74.26 62.2899 75.268C62.2899 74.98 62.3019 74.692 62.3259 74.404C62.3499 74.092 62.4099 73.816 62.5059 73.576C62.6259 73.312 62.8059 73.108 63.0459 72.964C63.2859 72.796 63.6099 72.712 64.0179 72.712C64.3779 72.712 64.7139 72.856 65.0259 73.144C65.3379 73.432 65.5179 74.056 65.5659 75.016C65.6379 76.288 65.6859 77.428 65.7099 78.436C65.7579 79.444 65.7819 80.488 65.7819 81.568C65.7819 82.888 65.7699 84.1 65.7459 85.204C65.7219 86.308 65.6619 87.484 65.5659 88.732C65.5179 89.284 65.4459 89.728 65.3499 90.064C65.2779 90.376 65.1819 90.616 65.0619 90.784C64.9419 90.928 64.7979 91.024 64.6299 91.072C64.4619 91.12 64.2939 91.144 64.1259 91.144ZM62.1819 82C62.1819 80.752 61.9899 79.732 61.6059 78.94C61.2459 78.148 60.7779 77.536 60.2019 77.104C59.6499 76.648 59.0499 76.336 58.4019 76.168C57.7539 76 57.1539 75.916 56.6019 75.916C55.7379 75.916 54.9939 76.072 54.3699 76.384C53.7699 76.696 53.2779 77.128 52.8939 77.68C52.5099 78.208 52.2219 78.844 52.0299 79.588C51.8619 80.308 51.7779 81.1 51.7779 81.964C51.7779 84.076 52.2339 85.636 53.1459 86.644C54.0819 87.652 55.3419 88.156 56.9259 88.156C57.8619 88.156 58.6539 88 59.3019 87.688C59.9739 87.352 60.5139 86.908 60.9219 86.356C61.3539 85.804 61.6659 85.156 61.8579 84.412C62.0739 83.644 62.1819 82.84 62.1819 82ZM76.8786 84.736C75.7986 85.864 74.8746 86.836 74.1066 87.652C73.3626 88.444 72.7266 89.104 72.1986 89.632C71.6706 90.136 71.2266 90.508 70.8666 90.748C70.5306 90.988 70.2186 91.108 69.9306 91.108C69.5946 91.108 69.2586 90.964 68.9226 90.676C68.6106 90.388 68.4546 90.076 68.4546 89.74C68.4546 89.452 68.6586 89.02 69.0666 88.444C69.4746 87.844 69.9786 87.184 70.5786 86.464C71.1786 85.744 71.8266 85 72.5226 84.232C73.2186 83.44 73.8546 82.696 74.4306 82C73.6626 81.112 72.9306 80.248 72.2346 79.408C71.5626 78.568 70.9746 77.788 70.4706 77.068C69.9666 76.348 69.5586 75.712 69.2466 75.16C68.9586 74.608 68.8146 74.176 68.8146 73.864C68.8146 73.552 68.9706 73.288 69.2826 73.072C69.5946 72.832 69.8826 72.712 70.1466 72.712C70.3626 72.712 70.7346 72.952 71.2626 73.432C71.7906 73.888 72.3786 74.452 73.0266 75.124C73.6986 75.772 74.3706 76.468 75.0426 77.212C75.7386 77.956 76.3626 78.616 76.9146 79.192C77.4426 78.616 78.0306 77.968 78.6786 77.248C79.3506 76.504 80.0106 75.808 80.6586 75.16C81.3066 74.512 81.9066 73.96 82.4586 73.504C83.0106 73.048 83.4426 72.82 83.7546 72.82C84.0186 72.82 84.2826 72.916 84.5466 73.108C84.8106 73.3 84.9426 73.552 84.9426 73.864C84.9426 74.176 84.7866 74.608 84.4746 75.16C84.1866 75.712 83.7906 76.348 83.2866 77.068C82.7826 77.788 82.1826 78.568 81.4866 79.408C80.8146 80.248 80.0946 81.112 79.3266 82C79.9266 82.672 80.5746 83.404 81.2706 84.196C81.9666 84.964 82.6146 85.72 83.2146 86.464C83.8146 87.184 84.3066 87.844 84.6906 88.444C85.0986 89.02 85.3026 89.452 85.3026 89.74C85.3026 90.076 85.1346 90.388 84.7986 90.676C84.4866 90.964 84.1626 91.108 83.8266 91.108C83.5146 91.108 83.0946 90.916 82.5666 90.532C82.0626 90.124 81.4866 89.62 80.8386 89.02C80.2146 88.396 79.5546 87.712 78.8586 86.968C78.1866 86.2 77.5266 85.456 76.8786 84.736ZM88.4656 88.768C88.4176 87.88 88.3696 86.872 88.3216 85.744C88.2976 84.592 88.2856 83.332 88.2856 81.964C88.2856 80.26 88.2976 78.808 88.3216 77.608C88.3456 76.384 88.4056 75.388 88.5016 74.62C88.6216 73.828 88.8016 73.252 89.0416 72.892C89.2816 72.508 89.6176 72.316 90.0496 72.316C90.4576 72.316 90.8176 72.46 91.1296 72.748C91.4416 73.036 91.6216 73.66 91.6696 74.62C91.8136 77.14 91.8856 79.576 91.8856 81.928C91.8856 83.128 91.8616 84.256 91.8136 85.312C91.7656 86.344 91.7176 87.484 91.6696 88.732C91.6456 89.308 91.5856 89.752 91.4896 90.064C91.4176 90.376 91.3096 90.616 91.1656 90.784C91.0216 90.952 90.8536 91.048 90.6616 91.072C90.4936 91.12 90.2896 91.144 90.0496 91.144C89.6176 91.144 89.2576 91 88.9696 90.712C88.6816 90.4 88.5136 89.752 88.4656 88.768ZM90.0856 65.8C90.6376 65.8 91.1416 66.016 91.5976 66.448C92.0776 66.88 92.3176 67.396 92.3176 67.996C92.3176 68.572 92.0776 69.076 91.5976 69.508C91.1176 69.916 90.5776 70.12 89.9776 70.12C89.4736 70.12 88.9936 69.916 88.5376 69.508C88.1056 69.076 87.8896 68.548 87.8896 67.924C87.8896 67.348 88.1056 66.856 88.5376 66.448C88.9936 66.016 89.5096 65.8 90.0856 65.8Z" fill="white" style="fill:white;fill-opacity:1;"/>
</svg>
